<?xml version="1.0" encoding="utf-8"?>
<!-- Generator: Adobe Illustrator 24.0.2, SVG Export Plug-In . SVG Version: 6.00 Build 0)  -->
<svg version="1.1" id="Capa_1" xmlns="http://www.w3.org/2000/svg" xmlns:xlink="http://www.w3.org/1999/xlink" x="0px" y="0px"
	 viewBox="0 0 1080 1080" style="enable-background:new 0 0 1080 1080;" xml:space="preserve">
<style type="text/css">
	.st0{fill:none;stroke:#FFFFFF;stroke-width:11.9111;stroke-miterlimit:10;}
	.st1{fill:none;}
	.st2{fill:none;stroke:#FFFFFF;stroke-width:2.5555;stroke-miterlimit:10;}
	.st3{fill:#FFFFFF;}
	.st4{font-family:'Impact';}
	.st5{font-size:133.4322px;}
	.st6{font-size:120.089px;}
	.st7{fill:none;stroke:#FFFFFF;stroke-width:2.7219;stroke-miterlimit:10;}
</style>
<g>
	<path class="st0" d="M266.39,266.39C196.37,336.41,153.06,433.15,153.06,540c0,16.52,1.04,32.8,3.04,48.77c0,0,0.12,0.17,0.31,0.44
		"/>
	<path class="st0" d="M266.39,266.39C336.41,196.37,433.15,153.06,540,153.06c136.34,0,257.33,71.86,326.26,178.42"/>
	<path class="st0" d="M923.61,489.01c2.2,16.69,3.33,33.71,3.33,50.99c0,213.7-173.24,386.94-386.94,386.94
		c-5.02,0-10.04-0.1-15.05-0.29c-5-0.19-9.99-0.48-14.98-0.86c-4.95-0.38-9.89-0.85-14.82-1.42c-4.9-0.57-9.78-1.22-14.65-1.98
		c-4.84-0.75-9.67-1.59-14.48-2.52c-4.78-0.93-9.54-1.94-14.29-3.05c-4.72-1.1-9.41-2.29-14.09-3.57
		c-4.65-1.27-9.28-2.63-13.88-4.08c-4.58-1.44-9.13-2.97-13.65-4.58c-4.51-1.6-8.98-3.29-13.42-5.07
		c-4.43-1.77-8.82-3.61-13.18-5.54c-4.35-1.92-8.66-3.93-12.93-6.01c-4.26-2.08-8.48-4.23-12.66-6.47
		c-4.17-2.23-8.3-4.53-12.39-6.91c-4.08-2.38-8.11-4.83-12.1-7.35c-3.98-2.52-7.92-5.11-11.81-7.77c-3.88-2.66-7.72-5.39-11.5-8.19
		c-3.78-2.8-7.51-5.66-11.19-8.59c-3.67-2.93-7.29-5.93-10.86-8.99c-3.56-3.06-7.07-6.18-10.52-9.37
		c-3.45-3.19-6.84-6.43-10.17-9.74c-3.33-3.31-6.6-6.68-9.81-10.1c-3.21-3.43-6.36-6.91-9.44-10.45c-3.09-3.54-6.11-7.14-9.06-10.79
		c-2.96-3.65-5.85-7.36-8.67-11.12c-2.83-3.76-5.58-7.58-8.27-11.44c-3.56-5.12-7.07-10.29-10.25-15.65
		c-1.23-2.08-2.4-4.19-3.57-6.3"/>
	<path id="SVGID_x5F_1_x5F_" class="st1" d="M805.8,461.54c53.37,143.54-19.73,303.17-163.27,356.53
		c-143.54,53.37-303.17-19.73-356.54-163.27s19.73-303.17,163.27-356.54S752.43,318,805.8,461.54z"/>
	<text>	<textPath  xlink:href="#SVGID_x5F_1_x5F_" startOffset="84.3913%">
<tspan  class="st3 st4" style="font-size:103.7369px; letter-spacing:210.59;">FUNDACIÓN</tspan>	</textPath>
</text>
	<polygon class="st2" points="73,620.06 953.63,299.83 926.94,406.57 1007,459.94 126.37,766.83 153.06,673.43 	"/>
	<text transform="matrix(0.9472 -0.3206 0.3206 0.9472 288.6328 679.6168)"><tspan x="0" y="0" class="st3 st4 st5">ANTIVIRUS</tspan><tspan x="562.07" y="0" class="st3 st4 st6"> </tspan></text>
	<path id="SVGID_x5F_2_x5F_" class="st1" d="M227.5,649.51c16.04,63.1,51.03,117.26,93.59,155.23
		c42.56,37.97,92.34,60.52,142.83,72.3c121.51,28.34,252.87-8.28,342.82-112.99s131.21-279.96,89.42-430.52"/>
	<text>	<textPath  xlink:href="#SVGID_x5F_2_x5F_" startOffset="22.1225%">
<tspan  class="st3 st4" style="font-size:103.7373px; letter-spacing:25.84;">PARA LA DESERCIÓN</tspan>	</textPath>
</text>
	<g>
		<polygon class="st3" points="575.84,679.83 597.38,678.56 608.55,660.09 616.41,680.19 637.43,685.1 620.75,698.79 622.56,720.3 
			604.39,708.66 584.5,717.04 589.95,696.15 		"/>
		<polygon class="st3" points="640.39,653.04 654.57,650.5 660.5,637.38 667.3,650.07 681.62,651.67 671.64,662.06 674.55,676.16 
			661.59,669.89 649.07,677.01 651.03,662.74 		"/>
		<polygon class="st3" points="673.07,615.93 684.33,611.5 687.06,599.72 694.75,609.05 706.79,608.01 700.29,618.21 705,629.35 
			693.3,626.31 684.16,634.24 683.43,622.17 		"/>
		<polygon class="st3" points="552.5,694.06 542.37,704.3 528.2,701.75 534.8,714.55 528,727.24 542.21,724.92 552.18,735.31 
			554.36,721.07 567.33,714.8 554.46,708.33 		"/>
		<polygon class="st3" points="497.16,687.07 487.13,693.83 475.88,689.41 479.21,701.03 471.52,710.37 483.61,710.79 
			490.11,720.99 494.25,709.62 505.96,706.59 496.43,699.14 		"/>
	</g>
	<g>
		<polygon class="st3" points="513.19,406.43 491.17,406.21 478.51,424.21 471.92,403.21 450.88,396.73 468.82,383.97 
			468.49,361.96 486.16,375.08 506.99,367.96 499.98,388.82 		"/>
		<polygon class="st3" points="445.61,429.15 431.01,430.74 424.04,443.67 418.02,430.27 403.57,427.64 414.44,417.77 
			412.48,403.21 425.23,410.51 438.47,404.14 435.47,418.52 		"/>
		<polygon class="st3" points="409.74,464.61 397.98,468.32 394.37,480.12 387.2,470.08 374.87,470.29 382.21,460.37 378.19,448.7 
			389.89,452.62 399.75,445.2 399.64,457.53 		"/>
		<polygon class="st3" points="537.93,393.59 548.96,383.89 563.21,387.47 557.39,373.99 565.2,361.55 550.58,362.91 541.16,351.64 
			537.94,365.97 524.31,371.44 536.94,378.93 		"/>
		<polygon class="st3" points="593.76,404.6 604.43,398.42 615.57,403.72 613,391.66 621.48,382.7 609.21,381.42 603.31,370.58 
			598.3,381.86 586.18,384.12 595.35,392.37 		"/>
	</g>
	<path class="st7" d="M706.99,390.55c-41.57-47.43-102.61-77.37-170.63-77.37c-4.54,0-9.09,0.13-13.62,0.4
		c-4.5,0.27-9,0.67-13.47,1.2c-4.43,0.53-8.85,1.19-13.24,1.97c-4.35,0.78-8.68,1.69-12.98,2.72c-4.26,1.03-8.5,2.18-12.69,3.45
		c-4.17,1.27-8.3,2.65-12.39,4.16c-4.06,1.5-8.08,3.11-12.06,4.84c-3.95,1.72-7.86,3.55-11.7,5.5c-3.83,1.94-7.61,3.98-11.33,6.13
		c-3.71,2.14-7.35,4.4-10.93,6.75c-3.57,2.35-7.07,4.79-10.51,7.34c-3.43,2.54-6.78,5.17-10.06,7.9c-3.28,2.72-6.48,5.54-9.59,8.45
		c-3.12,2.9-6.15,5.89-9.1,8.97c-2.95,3.07-5.81,6.23-8.59,9.46c-2.78,3.24-5.46,6.55-8.05,9.94c-2.59,3.39-5.09,6.86-7.49,10.39
		c-2.4,3.54-4.71,7.15-6.91,10.82c-2.21,3.68-4.31,7.42-6.3,11.22c-2,3.81-3.89,7.68-5.67,11.6c-1.79,3.94-3.46,7.93-5.02,11.96
		c-1.57,4.06-3.01,8.16-4.34,12.3c-1.34,4.17-2.55,8.37-3.64,12.61c-1.1,4.27-2.07,8.57-2.92,12.9c-0.86,4.37-1.58,8.76-2.18,13.17
		c-0.6,4.46-1.07,8.93-1.41,13.41c-0.3,4.03-0.43,8.01-0.39,12.05"/>
	<path class="st7" d="M763.15,544.08c-2.18,123.39-102.88,222.74-226.79,222.74c-70.59,0-133.64-32.24-175.24-82.8"/>
	<path class="st7" d="M685.79,397.65c-0.87-0.99-1.73-1.96-1.73-1.96c-37.36-37.6-89.13-60.89-146.33-60.89
		c-4.56,0-9.12,0.15-13.68,0.45c-4.51,0.3-9.02,0.74-13.5,1.33c-4.43,0.58-8.85,1.31-13.24,2.18c-4.34,0.86-8.66,1.87-12.94,3.01
		c-4.24,1.13-8.45,2.4-12.61,3.81c-4.13,1.39-8.22,2.92-12.26,4.58c-4.01,1.65-7.97,3.42-11.88,5.32c-3.88,1.89-7.71,3.9-11.47,6.03
		c-3.74,2.12-7.42,4.36-11.03,6.71c-3.6,2.35-7.12,4.81-10.56,7.37c-3.44,2.56-6.79,5.23-10.06,8c-3.27,2.77-6.45,5.63-9.54,8.6
		c-3.09,2.96-6.09,6.02-8.99,9.17c-2.9,3.15-5.71,6.39-8.41,9.71c-2.7,3.33-5.31,6.74-7.8,10.23c-2.5,3.5-4.89,7.07-7.16,10.71
		c-2.28,3.65-4.45,7.38-6.5,11.17c-2.06,3.8-3.99,7.67-5.8,11.6c-1.82,3.95-3.51,7.95-5.08,12c-1.57,4.08-3.02,8.21-4.33,12.38
		c-1.32,4.2-2.5,8.44-3.55,12.72c-1.06,4.31-1.97,8.66-2.74,13.04c-0.78,4.42-1.42,8.86-1.91,13.33c-0.31,2.84-0.54,5.59-0.54,8.45"
		/>
	<path class="st7" d="M743.76,551.16c-5.26,109.24-95.49,196.19-206.03,196.19c-61.15,0-116.08-26.61-153.86-68.88
		c0,0-0.71-0.84-1.51-1.77"/>
</g>
</svg>
